<svg width="22" height="19" viewBox="0 0 22 19" fill="none" xmlns="http://www.w3.org/2000/svg">
<path fill-rule="evenodd" clip-rule="evenodd" d="M11.3553 0.301762C11.1119 0.23267 10.8551 0.232733 10.6116 0.302028C10.0931 0.449573 9.56971 0.586228 9.04453 0.72335C6.70087 1.33527 4.12037 2.00904 1.91292 3.81037L0.872146 4.65967C0.0422072 5.33693 0.0426438 6.66327 0.873302 7.33983L1.89724 8.17382C2.65371 8.78995 3.44208 9.27191 4.25 9.66495V14.2939C4.25 15.4272 4.94522 16.4444 6.0011 16.8561L10.0011 18.4156C10.6435 18.666 11.3565 18.666 11.9989 18.4156L15.9989 16.8561C17.0548 16.4444 17.75 15.4272 17.75 14.2939V9.67325C18.5526 9.28229 19.3357 8.80278 20.0871 8.18963L20.25 8.05668V13C20.25 13.4142 20.5858 13.75 21 13.75C21.4142 13.75 21.75 13.4142 21.75 13V6C21.7498 5.49918 21.542 4.99845 21.1267 4.66016L20.1028 3.82618C17.8793 2.01516 15.1903 1.31386 12.9192 0.72153C12.3952 0.584853 11.8729 0.44863 11.3553 0.301762ZM7.29914 9.81224C6.9193 9.64703 6.47745 9.82102 6.31224 10.2009C6.14704 10.5807 6.32103 11.0226 6.70087 11.1878C7.97872 11.7435 9.30149 12.1983 10.6571 12.5462C10.8933 12.6068 11.1411 12.6068 11.3773 12.5459C12.7292 12.198 14.0481 11.7432 15.3219 11.1874C15.7015 11.0217 15.875 10.5797 15.7093 10.2C15.5436 9.8204 15.1016 9.64693 14.7219 9.8126C13.5253 10.3348 12.2865 10.7623 11.0167 11.0899C9.743 10.7622 8.50004 10.3346 7.29914 9.81224Z" fill="#283B51"/>
</svg>
