<svg width="16" height="21" viewBox="0 0 16 21" fill="none" xmlns="http://www.w3.org/2000/svg">
<path fill-rule="evenodd" clip-rule="evenodd" d="M4.25 3C4.25 1.48122 5.48122 0.25 7 0.25H9C10.5188 0.25 11.75 1.48122 11.75 3V5C11.75 5.41421 11.4142 5.75 11 5.75H5C4.58579 5.75 4.25 5.41421 4.25 5V3ZM7 1.75C6.30964 1.75 5.75 2.30964 5.75 3V4.25H10.25V3C10.25 2.30964 9.69036 1.75 9 1.75H7Z" fill="#283B51"/>
<path fill-rule="evenodd" clip-rule="evenodd" d="M2.48693 2.92877C2.61335 2.86816 2.75371 2.96463 2.75346 3.10483L2.75 5.00001C2.75 6.24265 3.75736 7.25001 5 7.25001H11C12.2426 7.25001 13.25 6.24265 13.25 5.00001V3.10426C13.25 2.96422 13.3903 2.868 13.5165 2.92855C14.7016 3.49669 15.5 4.70679 15.5 6.08546V16.5749C15.5 18.2857 14.2257 19.7285 12.528 19.9399C9.52096 20.3144 6.47904 20.3144 3.47197 19.9399C1.77431 19.7285 0.5 18.2857 0.5 16.5749V6.08545C0.5 4.70697 1.30161 3.49701 2.48693 2.92877ZM11 10C11.4142 10 11.75 10.3358 11.75 10.75C11.75 11.1642 11.4142 11.5 11 11.5H5C4.58579 11.5 4.25 11.1642 4.25 10.75C4.25 10.3358 4.58579 10 5 10H11ZM10 13C10.4142 13 10.75 13.3358 10.75 13.75C10.75 14.1642 10.4142 14.5 10 14.5H5C4.58579 14.5 4.25 14.1642 4.25 13.75C4.25 13.3358 4.58579 13 5 13H10Z" fill="#283B51"/>
</svg>
