<svg width="24" height="24" viewBox="0 0 24 24" fill="none" xmlns="http://www.w3.org/2000/svg">
<g id="77-star">
<path id="Vector" d="M11.1169 3.66283C11.4929 2.95492 12.5073 2.95492 12.8833 3.66283L14.8393 7.34568C14.9838 7.61783 15.2458 7.80813 15.5493 7.8615L19.6563 8.58374C20.4458 8.72256 20.7592 9.68727 20.2021 10.2636L17.304 13.262C17.0898 13.4835 16.9898 13.7915 17.0328 14.0966L17.6151 18.2258C17.727 19.0195 16.9063 19.6157 16.1861 19.264L12.4389 17.4343C12.162 17.299 11.8382 17.299 11.5613 17.4343L7.81412 19.264C7.09384 19.6157 6.27321 19.0195 6.38513 18.2258L6.96739 14.0966C7.01042 13.7915 6.91037 13.4835 6.69621 13.262L3.79806 10.2636C3.24098 9.68727 3.55444 8.72256 4.34389 8.58374L8.45093 7.8615C8.75442 7.80813 9.01636 7.61782 9.1609 7.34568L11.1169 3.66283Z" stroke="#283B51" stroke-width="1.5"/>
</g>
</svg>
