<svg width="19" height="20" viewBox="0 0 19 20" fill="none" xmlns="http://www.w3.org/2000/svg">
<path d="M9.5 6.75C7.70507 6.75 6.25 8.20507 6.25 10C6.25 11.7949 7.70507 13.25 9.5 13.25C11.2949 13.25 12.75 11.7949 12.75 10C12.75 8.20507 11.2949 6.75 9.5 6.75Z" fill="#283B51"/>
<path fill-rule="evenodd" clip-rule="evenodd" d="M10.1799 0.805758C9.75709 0.570851 9.24296 0.570851 8.82013 0.805757L1.62012 4.80576C1.17567 5.05267 0.900024 5.52114 0.900024 6.02958V13.9705C0.900024 14.4789 1.17567 14.9474 1.62012 15.1943L8.82013 19.1943C9.24296 19.4292 9.7571 19.4292 10.1799 19.1943L17.3799 15.1943C17.8244 14.9474 18.1 14.4789 18.1 13.9705V6.02958C18.1 5.52114 17.8244 5.05267 17.3799 4.80576L10.1799 0.805758ZM4.75 10C4.75 7.37665 6.87665 5.25 9.5 5.25C12.1234 5.25 14.25 7.37665 14.25 10C14.25 12.6234 12.1234 14.75 9.5 14.75C6.87665 14.75 4.75 12.6234 4.75 10Z" fill="#283B51"/>
</svg>
