<svg width="17" height="20" viewBox="0 0 17 20" fill="none" xmlns="http://www.w3.org/2000/svg">
<path fill-rule="evenodd" clip-rule="evenodd" d="M10.75 0.5C10.75 0.361929 10.6381 0.25 10.5 0.25H3.5C1.98122 0.25 0.75 1.48122 0.75 3V17C0.75 18.5188 1.98122 19.75 3.5 19.75H13.5C15.0188 19.75 16.25 18.5188 16.25 17V7.14706C16.25 7.00899 16.1381 6.89706 16 6.89706H11.5C11.0858 6.89706 10.75 6.56127 10.75 6.14706V0.5ZM8.5 8C7.39543 8 6.5 8.89543 6.5 10C6.5 11.1046 7.39543 12 8.5 12C9.60457 12 10.5 11.1046 10.5 10C10.5 8.89543 9.60457 8 8.5 8ZM4.5 16.5C4.5 14.8431 5.84315 13.5 7.5 13.5H9.5C11.1569 13.5 12.5 14.8431 12.5 16.5C12.5 17.0523 12.0523 17.5 11.5 17.5H5.5C4.94772 17.5 4.5 17.0523 4.5 16.5Z" fill="#283B51"/>
<path d="M12.25 0.824135C12.25 0.63964 12.4426 0.522496 12.5862 0.638386C12.7071 0.735999 12.8158 0.850358 12.9085 0.979549L15.9217 5.17745C15.9903 5.27302 15.916 5.39706 15.7983 5.39706H12.5C12.3619 5.39706 12.25 5.28513 12.25 5.14706V0.824135Z" fill="#283B51"/>
</svg>
